# xmcd
#
# Track frame offsets:
#	150
#	12403
#	26611
#	44497
#	61699
#	79413
#	98190
#	111637
#	125109
#	138920
#	153567
#	171542
#	188488
#	211095
#	229375
#	241897
#	259011
#	272536
#
# Disc length: 3721 seconds
#
# Revision: 1
# Processed by: cddbd v1.5.2PL0 Copyright (c) Steve Scherf et al.
# Submitted via: audiograbber 1.83.01
#
DISCID=010e8712
DTITLE=Jeane Manson - Mes plus belles chansons Country
DYEAR=1996
DGENRE=Country
TTITLE0=Stand by your man
TTITLE1=Ma cabane au bord du bayou
TTITLE2=La cité des anges
TTITLE3=The heart is a lonely hunter
TTITLE4=Ce que femme veut
TTITLE5=Rester ou partir
TTITLE6=I wanna go too far
TTITLE7=Libre
TTITLE8=Je te dis merci pour tout
TTITLE9=You can sleep while i drive
TTITLE10=Que la chanson est belle
TTITLE11=Mes intentions sont pacifiques
TTITLE12=How can i help you to say goodbye
TTITLE13=Croire en toi
TTITLE14=C'est toi que j'aime (Stand by your man)
TTITLE15=Le temps perdu ( The heart is a lonely hunter)
TTITLE16=Je vais toujours trop vite (Wanna goot too far)
TTITLE17=Oh Susannah
EXTD=
EXTT0=
EXTT1=
EXTT2=
EXTT3=
EXTT4=
EXTT5=
EXTT6=
EXTT7=
EXTT8=
EXTT9=
EXTT10=
EXTT11=
EXTT12=
EXTT13=
EXTT14=
EXTT15=
EXTT16=
EXTT17=
PLAYORDER=
